<svg id="Camada_1" data-name="Camada 1" xmlns="http://www.w3.org/2000/svg" viewBox="0 0 591 591"><defs><style>.cls-1{fill:#fff;}</style></defs><title>sad-smartphone</title><path class="cls-1" d="M420.5,0h-250A43.51,43.51,0,0,0,127,43.5v504A43.51,43.51,0,0,0,170.5,591h250A43.51,43.51,0,0,0,464,547.5V43.5A43.51,43.51,0,0,0,420.5,0ZM246,20h99a6,6,0,0,1,0,12H246a6,6,0,0,1,0-12ZM444,534.49A19.52,19.52,0,0,1,424.49,554h-258A19.52,19.52,0,0,1,147,534.49v-462A19.52,19.52,0,0,1,166.51,53h258A19.52,19.52,0,0,1,444,72.51Z"/><path class="cls-1" d="M256.67,391.29a32.41,32.41,0,0,1,7.66-6.52,51.31,51.31,0,0,1,13.75-6c1.61-.47,3.25-.84,4.91-1.15a60.53,60.53,0,0,1,10.07-.92,55.3,55.3,0,0,1,19.82,3.56,43.28,43.28,0,0,1,16.6,11.06c-6.76-.53-12.81-1.38-18.79-1.88s-11.77-.75-17.6-.74-11.66.28-17.65.79S263.36,390.61,256.67,391.29Z"/><path class="cls-1" d="M186.5,281.79c3.91,1.33,7.5,2.6,11,3.76s7,2.17,10.29,3a74.43,74.43,0,0,0,19.22,2.64,58.08,58.08,0,0,0,18.55-3.5c.78-.3,1.58-.58,2.39-.87s1.58-.68,2.41-1c1.65-.63,3.25-1.44,4.93-2.2.88-.34,1.67-.8,2.52-1.21s1.7-.84,2.6-1.24c1.72-.87,3.46-1.79,5.42-2.59a40.15,40.15,0,0,1-2.24,5.72,47,47,0,0,1-3.15,5.27c-.61.83-1.24,1.64-1.88,2.47a26.85,26.85,0,0,1-2.08,2.33c-.73.76-1.44,1.54-2.24,2.23s-1.62,1.37-2.46,2a40.38,40.38,0,0,1-11.45,6.22,42.35,42.35,0,0,1-13.12,2.32,45.19,45.19,0,0,1-24.6-7.21,47.72,47.72,0,0,1-9.45-8,41.86,41.86,0,0,1-3.78-4.83A27.24,27.24,0,0,1,186.5,281.79Z"/><path class="cls-1" d="M404.5,283.47a27.42,27.42,0,0,1-3.07,5.35,43.14,43.14,0,0,1-3.91,4.72,47.77,47.77,0,0,1-9.68,7.69,45.11,45.11,0,0,1-24.79,6.51A42.05,42.05,0,0,1,350,305.05a40.35,40.35,0,0,1-11.27-6.55c-.82-.68-1.62-1.4-2.41-2.1s-1.47-1.51-2.17-2.29a28.67,28.67,0,0,1-2-2.39c-.61-.84-1.22-1.68-1.8-2.52a47,47,0,0,1-3-5.36,40.3,40.3,0,0,1-2.08-5.79c1.93.86,3.65,1.83,5.35,2.75.88.43,1.71.88,2.56,1.32s1.62.91,2.48,1.28c1.66.8,3.24,1.66,4.87,2.33.82.33,1.57.76,2.38,1.06s1.6.62,2.37.94a58.08,58.08,0,0,0,18.44,4,74.58,74.58,0,0,0,19.28-2.1q5.06-1.16,10.38-2.74C396.93,285.86,400.55,284.69,404.5,283.47Z"/></svg>